<?xml version="1.0" encoding="utf-8"?>
<!-- Generator: Adobe Illustrator 27.9.1, SVG Export Plug-In . SVG Version: 6.00 Build 0)  -->
<svg version="1.1" id="Layer_1" xmlns="http://www.w3.org/2000/svg" xmlns:xlink="http://www.w3.org/1999/xlink" x="0px" y="0px"
	 viewBox="0 0 432 432" style="enable-background:new 0 0 432 432;" xml:space="preserve">
<g>
	<path d="M100.62,185.94h19.09v4.8h1.71c4.12-4.27,9.56-6.4,16.34-6.4c6.4,0,11.6,2.21,15.6,6.63c4,4.42,6.04,10.71,6.11,18.86
		v33.26h-19.09v-33.26c-0.08-4.42-1.07-7.6-2.97-9.54c-1.91-1.94-4.27-2.91-7.09-2.91c-2.97,0-5.47,1.13-7.49,3.37
		c-2.02,2.25-3.07,5.66-3.14,10.23v32.12h-19.09V185.94z"/>
	<path d="M162.34,164.11h20.23v78.98h-20.23V164.11z M209.54,164.11h23.32l-27.43,33.6c-0.61,0.76-0.91,1.26-0.91,1.49
		c0,0.46,0.27,1.07,0.8,1.83l27.55,42.06H210.8l-22.52-34.63c-2.59-4.12-3.89-7.54-3.89-10.29c0-2.59,1.1-5.22,3.31-7.89
		L209.54,164.11z"/>
	<rect x="78.68" y="164.11" width="19.09" height="14.74"/>
	<path d="M229.54,199.08c2.36-4.57,5.96-8.17,10.8-10.8c4.84-2.63,10.8-3.94,17.89-3.94c7.09,0,13.05,1.31,17.89,3.94
		c4.84,2.63,8.44,6.21,10.8,10.74c2.36,4.53,3.54,9.66,3.54,15.37v4.23h-45.15c0.53,3.96,1.87,7.18,4,9.66
		c2.13,2.48,5.1,3.71,8.92,3.71c2.89,0,5.31-0.78,7.26-2.34s3.41-3.68,4.4-6.34h19.77c-1.45,6.86-4.93,12.15-10.46,15.89
		c-5.53,3.73-12.52,5.6-20.97,5.6c-7.09,0-13.05-1.33-17.89-4c-4.84-2.67-8.44-6.27-10.8-10.8c-2.36-4.53-3.54-9.69-3.54-15.49
		C226,208.8,227.18,203.66,229.54,199.08z M266.23,199.94c-2.06-1.87-4.72-2.8-8-2.8c-3.28,0-5.94,0.93-8,2.8
		c-2.06,1.87-3.47,4.36-4.23,7.49h24.46C269.7,204.3,268.29,201.81,266.23,199.94z"/>
	<g>
		<path d="M141.77,253.97h3.02c1.35,0,2.6,0.07,3.81,0.56c2.2,0.89,3.52,3.01,3.52,5.71c0,3.5-2.12,6-6.06,6h-4.29V253.97z
			 M144.81,265.04c2.32,0,3.86-0.21,4.95-1.54c0.7-0.85,1.08-1.96,1.08-3.25c0-1.25-0.34-2.36-1.03-3.25
			c-1.16-1.52-2.9-1.85-5.57-1.85h-1.25v9.88H144.81z"/>
		<path d="M156.08,264.28c0.91,0.65,1.67,1.13,2.41,1.13c0.51,0,0.97-0.24,1.28-0.65c0.39-0.53,0.44-1.23,0.44-2.1v-8.68h1.23v8.71
			c0,1.28-0.12,2.27-0.77,2.99c-0.5,0.55-1.3,0.86-2.19,0.86c-1.21,0-2.12-0.5-3.06-1.28L156.08,264.28z"/>
	</g>
	<g>
		<path d="M187.01,256.98c-1.08-1.42-2.61-2.12-4.37-2.12c-2.9,0-5.35,2.15-5.35,5.28c0,3.04,2.32,5.26,5.42,5.26
			c1.71,0,3.16-0.7,4.31-2.03l0.97,0.73c-1.26,1.59-3.13,2.43-5.36,2.43c-4.1,0-6.61-2.89-6.61-6.49c0-3.62,2.8-6.37,6.61-6.37
			c2.26,0,4.15,0.89,5.36,2.58L187.01,256.98z"/>
		<path d="M204.57,260.11c0,3.6-2.82,6.44-6.46,6.44c-3.78,0-6.47-2.96-6.47-6.39c0-3.66,2.84-6.49,6.37-6.49
			C201.74,253.67,204.57,256.45,204.57,260.11z M192.92,260.16c0,3.02,2.39,5.19,5.16,5.19c2.87,0,5.21-2.19,5.21-5.26
			c0-3.11-2.49-5.23-5.21-5.23C195.38,254.86,192.92,257.02,192.92,260.16z"/>
		<path d="M208.76,253.97h1.23v11.07h4.71v1.2h-5.94V253.97z"/>
		<path d="M218.39,253.97h1.23v11.07h4.71v1.2h-5.94V253.97z"/>
		<path d="M228.01,253.97h7v1.2h-5.77v3.84h5.77v1.2h-5.77v4.83h5.77v1.2h-7V253.97z"/>
		<path d="M249.33,256.98c-1.08-1.42-2.61-2.12-4.37-2.12c-2.9,0-5.35,2.15-5.35,5.28c0,3.04,2.32,5.26,5.42,5.26
			c1.71,0,3.16-0.7,4.31-2.03l0.97,0.73c-1.26,1.59-3.13,2.43-5.36,2.43c-4.1,0-6.61-2.89-6.61-6.49c0-3.62,2.8-6.37,6.61-6.37
			c2.26,0,4.15,0.89,5.36,2.58L249.33,256.98z"/>
		<path d="M253.27,255.17v-1.2H260v1.2h-2.73v11.07h-1.23v-11.07H253.27z"/>
		<path d="M263.31,253.97h1.23v12.27h-1.23V253.97z"/>
		<path d="M268.13,253.97h1.33l4.07,9.48l4.13-9.48H279l-5.33,12.27h-0.27L268.13,253.97z"/>
		<path d="M282.79,253.97h7v1.2h-5.77v3.84h5.77v1.2h-5.77v4.83h5.77v1.2h-7V253.97z"/>
	</g>
	<path d="M334.24,185.94l-13.49,41.15h-2.17l-12.8-41.15h-19.09l15.74,47.7c1.86,5.64,7.13,9.44,13.06,9.44l-1.6,4.8
		c-0.76,1.6-1.85,2.76-3.26,3.48c-1.06,0.55-2.23,0.88-3.48,1.02H295.8v15.5h11.35v-0.04c0.47,0.02,0.93,0.04,1.37,0.04
		c5.56,0,10.21-1.56,13.94-4.69c3.73-3.13,6.82-8.23,9.26-15.31h0.11l21.49-61.95H334.24z"/>
	<rect x="78.68" y="185.94" width="19.09" height="17.86"/>
	<rect x="78.68" y="205.58" width="19.09" height="17.86"/>
	<rect x="78.68" y="225.23" width="19.09" height="17.86"/>
</g>
</svg>
