<?xml version="1.0" encoding="utf-8"?>
<!-- Generator: Adobe Illustrator 27.9.1, SVG Export Plug-In . SVG Version: 6.00 Build 0)  -->
<svg version="1.1" id="Layer_1" xmlns="http://www.w3.org/2000/svg" xmlns:xlink="http://www.w3.org/1999/xlink" x="0px" y="0px"
	 viewBox="0 0 432 432" style="enable-background:new 0 0 432 432;" xml:space="preserve">
<style type="text/css">
	.st0{fill:#232C65;}
	.st1{fill:#0A68B3;}
</style>
<g>
	<g>
		<g>
			<path class="st0" d="M221.55,210.01h2.95c1.32,0,2.54,0.07,3.72,0.55c2.15,0.87,3.44,2.94,3.44,5.58c0,3.42-2.07,5.86-5.93,5.86
				h-4.19V210.01z M224.52,220.82c2.27,0,3.77-0.2,4.84-1.5c0.68-0.83,1.05-1.92,1.05-3.17c0-1.22-0.33-2.3-1-3.17
				c-1.13-1.49-2.84-1.8-5.44-1.8h-1.22v9.65H224.52z"/>
			<path class="st0" d="M235.53,220.07c0.88,0.64,1.64,1.1,2.35,1.1c0.5,0,0.95-0.23,1.25-0.64c0.38-0.52,0.43-1.2,0.43-2.05v-8.48
				h1.2v8.51c0,1.25-0.12,2.22-0.75,2.92c-0.48,0.54-1.27,0.84-2.14,0.84c-1.19,0-2.07-0.49-2.99-1.25L235.53,220.07z"/>
		</g>
		<g>
			<path class="st0" d="M262.58,212.94c-1.05-1.38-2.55-2.07-4.27-2.07c-2.84,0-5.22,2.1-5.22,5.16c0,2.97,2.27,5.14,5.29,5.14
				c1.67,0,3.09-0.69,4.21-1.99l0.95,0.72c-1.23,1.55-3.05,2.37-5.24,2.37c-4.01,0-6.46-2.82-6.46-6.34c0-3.54,2.74-6.22,6.46-6.22
				c2.2,0,4.06,0.87,5.24,2.52L262.58,212.94z"/>
			<path class="st0" d="M279.74,216c0,3.52-2.75,6.29-6.31,6.29c-3.69,0-6.32-2.89-6.32-6.24c0-3.57,2.77-6.34,6.23-6.34
				C276.96,209.71,279.74,212.43,279.74,216z M268.35,216.05c0,2.95,2.34,5.07,5.04,5.07c2.8,0,5.09-2.14,5.09-5.14
				c0-3.04-2.44-5.11-5.09-5.11C270.76,210.87,268.35,212.98,268.35,216.05z"/>
			<path class="st0" d="M283.82,210.01h1.2v10.82h4.61v1.17h-5.81V210.01z"/>
			<path class="st0" d="M293.23,210.01h1.2v10.82h4.61v1.17h-5.81V210.01z"/>
			<path class="st0" d="M302.64,210.01h6.84v1.17h-5.64v3.76h5.64v1.17h-5.64v4.72h5.64v1.17h-6.84V210.01z"/>
			<path class="st0" d="M323.46,212.94c-1.05-1.38-2.55-2.07-4.27-2.07c-2.84,0-5.22,2.1-5.22,5.16c0,2.97,2.27,5.14,5.29,5.14
				c1.67,0,3.09-0.69,4.21-1.99l0.95,0.72c-1.23,1.55-3.05,2.37-5.24,2.37c-4.01,0-6.46-2.82-6.46-6.34c0-3.54,2.74-6.22,6.46-6.22
				c2.2,0,4.06,0.87,5.24,2.52L323.46,212.94z"/>
			<path class="st0" d="M327.32,211.17v-1.17h6.58v1.17h-2.67v10.82h-1.2v-10.82H327.32z"/>
			<path class="st0" d="M337.12,210.01h1.2v11.98h-1.2V210.01z"/>
			<path class="st0" d="M341.83,210.01h1.3l3.97,9.27l4.04-9.27h1.3l-5.21,11.98h-0.27L341.83,210.01z"/>
			<path class="st0" d="M356.15,210.01h6.84v1.17h-5.64v3.76h5.64v1.17h-5.64v4.72h5.64v1.17h-6.84V210.01z"/>
		</g>
	</g>
	<g>
		<path class="st0" d="M80.81,199.83h10.27v2.58H92c2.21-2.29,5.14-3.44,8.79-3.44c3.44,0,6.24,1.19,8.39,3.57
			c2.15,2.38,3.25,5.76,3.29,10.15v17.89h-10.27v-17.89c-0.04-2.38-0.57-4.09-1.6-5.14c-1.03-1.04-2.3-1.57-3.81-1.57
			c-1.6,0-2.94,0.61-4.03,1.81c-1.09,1.21-1.65,3.04-1.69,5.5v17.28H80.81V199.83z"/>
		<path class="st0" d="M114.02,188.08h10.88v42.49h-10.88V188.08z M139.41,188.08h12.54l-14.76,18.08c-0.33,0.41-0.49,0.68-0.49,0.8
			c0,0.25,0.14,0.57,0.43,0.98l14.82,22.63h-11.87l-12.11-18.63c-1.39-2.21-2.09-4.06-2.09-5.53c0-1.39,0.59-2.81,1.78-4.24
			L139.41,188.08z"/>
		<rect x="69.01" y="188.08" class="st1" width="10.27" height="7.93"/>
		<path class="st0" d="M150.17,206.9c1.27-2.46,3.21-4.4,5.81-5.81c2.6-1.41,5.81-2.12,9.62-2.12c3.81,0,7.02,0.71,9.62,2.12
			c2.6,1.41,4.54,3.34,5.81,5.78c1.27,2.44,1.91,5.2,1.91,8.27v2.27h-24.29c0.29,2.13,1,3.86,2.15,5.2c1.15,1.33,2.75,2,4.8,2
			c1.56,0,2.86-0.42,3.9-1.26c1.05-0.84,1.83-1.98,2.37-3.41h10.64c-0.78,3.69-2.65,6.54-5.63,8.55c-2.97,2.01-6.73,3.01-11.28,3.01
			c-3.81,0-7.02-0.72-9.62-2.15c-2.6-1.43-4.54-3.37-5.81-5.81c-1.27-2.44-1.91-5.22-1.91-8.33
			C148.26,212.13,148.9,209.36,150.17,206.9z M169.91,207.36c-1.11-1-2.54-1.51-4.3-1.51c-1.76,0-3.2,0.5-4.3,1.51
			c-1.11,1.01-1.87,2.35-2.27,4.03h13.16C171.77,209.71,171.02,208.37,169.91,207.36z"/>
		<path class="st0" d="M206.5,199.83l-7.26,22.14h-1.17l-6.89-22.14h-10.27l8.47,25.67c1,3.03,3.83,5.08,7.03,5.08l-0.86,2.58
			c-0.41,0.86-0.99,1.49-1.75,1.87c-0.57,0.29-1.2,0.48-1.87,0.55h-6.11v8.34h6.11v-0.02c0.25,0.01,0.5,0.02,0.74,0.02
			c2.99,0,5.49-0.84,7.5-2.52c2.01-1.68,3.67-4.43,4.98-8.24h0.06l11.56-33.33H206.5z"/>
		<rect x="69.01" y="199.83" class="st0" width="10.27" height="9.61"/>
		<rect x="69.01" y="210.4" class="st0" width="10.27" height="9.61"/>
		<rect x="69.01" y="220.96" class="st0" width="10.27" height="9.61"/>
	</g>
</g>
</svg>
